<?xml version="1.0" standalone="no"?>
<!DOCTYPE svg PUBLIC "-//W3C//DTD SVG 20010904//EN"
 "http://www.w3.org/TR/2001/REC-SVG-20010904/DTD/svg10.dtd">
<svg version="1.0" xmlns="http://www.w3.org/2000/svg"
 width="260.000000pt" height="260.000000pt" viewBox="0 0 260.000000 260.000000"
 preserveAspectRatio="xMidYMid meet">
<metadata>
Created by potrace 1.14, written by Peter Selinger 2001-2017
</metadata>
<g transform="translate(0.000000,260.000000) scale(0.100000,-0.100000)"
fill="#000000" stroke="none">
<path d="M1228 2285 c-106 -36 -200 -112 -243 -196 l-24 -46 -78 -5 c-105 -6
-185 -42 -253 -114 -69 -73 -109 -162 -111 -249 l-2 -66 -40 -20 c-62 -32
-129 -106 -175 -197 l-43 -82 26 -77 c41 -118 112 -205 200 -247 29 -14 33
-21 38 -72 18 -172 187 -325 364 -328 47 -1 73 -5 73 -12 0 -7 18 -38 39 -71
52 -76 134 -137 222 -163 37 -11 76 -28 84 -37 12 -12 19 -13 24 -5 4 7 34 21
67 33 78 27 122 47 130 61 5 8 1 9 -12 3 -10 -4 -58 -22 -106 -40 l-87 -32
-80 27 c-44 15 -95 37 -113 48 -59 37 -131 124 -143 175 -7 26 -10 27 -69 27
-79 0 -183 37 -243 86 -72 59 -115 134 -127 225 -10 74 -11 77 -42 88 -83 30
-174 150 -205 272 -12 44 -11 47 31 127 45 88 117 162 176 184 31 11 32 13 33
72 2 143 86 277 209 334 45 21 75 27 142 29 l84 2 28 54 c28 57 109 137 162
162 17 7 57 23 89 33 l58 19 47 -23 c26 -12 71 -32 100 -43 69 -26 129 -77
171 -143 34 -54 34 -54 90 -56 199 -8 341 -149 358 -354 6 -64 8 -69 42 -91
94 -64 162 -166 176 -266 6 -43 2 -57 -33 -127 -40 -79 -115 -167 -152 -179
-11 -4 -20 -9 -21 -13 -1 -4 -2 -34 -4 -67 -5 -114 -87 -230 -205 -290 -53
-27 -89 -35 -153 -37 -47 -1 -49 -2 -69 -44 -11 -25 -24 -47 -29 -50 -5 -3 -9
-10 -9 -15 0 -12 42 36 58 67 9 18 23 22 80 26 84 6 164 46 241 119 61 58 96
129 106 212 7 54 11 61 74 125 41 42 80 95 105 142 22 41 44 78 49 82 7 4 7
11 0 20 -6 7 -14 29 -18 48 -21 97 -100 210 -181 261 -19 11 -32 24 -30 28 3
4 0 40 -5 81 -27 194 -168 325 -372 346 -45 4 -59 10 -68 27 -42 80 -128 147
-239 187 -36 13 -72 29 -81 37 -20 17 -29 16 -111 -12z"/>
<path d="M1240 2238 c-41 -15 -93 -40 -115 -56 -43 -30 -108 -119 -122 -167
l-9 -30 -70 3 c-209 10 -370 -154 -351 -359 l5 -56 -37 -13 c-63 -23 -122 -70
-162 -133 -21 -33 -39 -68 -39 -77 0 -9 -5 -21 -11 -27 -28 -28 28 -161 98
-231 26 -26 69 -57 94 -67 l47 -19 6 -65 c7 -80 42 -155 98 -211 70 -70 148
-98 255 -94 l61 3 22 -53 c41 -101 112 -164 237 -209 l71 -26 99 42 c117 50
177 102 213 190 21 50 26 56 44 50 28 -11 101 -6 144 8 132 44 242 188 242
318 0 45 3 51 34 70 45 28 113 103 130 143 29 68 36 83 48 99 9 13 6 32 -16
92 -33 90 -87 157 -156 192 l-47 24 -6 85 c-14 196 -151 326 -344 326 l-60 0
-23 50 c-30 65 -103 133 -176 165 -31 14 -62 25 -69 25 -7 0 -23 8 -36 18 -23
18 -26 18 -99 -10z m100 -13 c7 -8 20 -15 29 -15 34 0 138 -59 179 -101 38
-39 82 -114 82 -138 0 -6 23 -7 53 -4 82 8 181 -25 241 -82 69 -67 100 -140
101 -239 l0 -78 50 -24 c89 -43 133 -98 165 -204 l16 -54 -37 -76 c-58 -118
-135 -178 -376 -291 -204 -96 -320 -138 -438 -160 -33 -7 -82 -17 -110 -23
-27 -6 -58 -10 -67 -8 -22 4 -24 22 -3 22 8 0 23 9 32 20 10 11 26 20 36 20
66 0 188 100 273 223 30 43 54 81 54 84 0 19 98 134 123 144 41 17 66 46 77
91 33 128 30 120 55 115 49 -9 77 64 48 123 -10 19 -25 35 -33 35 -20 0 -76
-116 -83 -172 -5 -49 -30 -83 -60 -83 -18 0 -19 2 -5 18 19 21 37 74 46 132
11 70 7 241 -7 281 -6 20 -14 46 -16 59 -2 12 -8 27 -13 34 -5 6 -13 29 -16
50 -7 34 -9 37 -22 24 -20 -20 -24 -67 -9 -103 23 -57 57 -254 53 -307 -4 -55
-9 -80 -18 -88 -3 -3 -20 -27 -38 -55 -38 -58 -82 -113 -82 -102 0 13 37 80
64 116 26 35 34 57 16 46 -5 -3 -7 0 -4 8 13 34 -17 25 -42 -13 -32 -48 -48
-52 -39 -10 26 120 16 340 -18 365 -9 6 -14 15 -10 18 3 4 1 7 -5 7 -7 0 -12
11 -12 24 0 14 -4 27 -10 31 -5 3 -7 12 -4 19 3 8 1 17 -5 20 -26 16 -23 -52
7 -173 57 -232 55 -264 -30 -390 -30 -44 -51 -87 -53 -108 -3 -33 -39 -85 -75
-107 -8 -5 -35 -29 -60 -52 -47 -44 -181 -125 -265 -161 -116 -49 -214 -58
-289 -25 -126 56 -160 186 -96 363 51 140 51 137 29 132 -11 -3 -30 -24 -42
-47 -72 -137 -93 -266 -62 -381 27 -103 60 -144 159 -204 75 -45 93 -52 134
-50 26 1 53 7 60 12 9 7 12 4 10 -14 l-3 -24 120 -1 c118 -2 275 13 367 35 96
22 197 64 457 188 62 29 116 51 119 48 13 -13 -23 -120 -58 -172 -67 -100
-151 -146 -267 -145 l-72 1 -36 -75 c-44 -91 -90 -128 -209 -168 -74 -25 -86
-27 -126 -16 -137 37 -220 120 -266 268 -3 9 -11 11 -26 6 -31 -10 -135 -6
-180 8 -54 16 -142 99 -174 163 -17 35 -28 78 -32 120 l-5 65 -41 12 c-63 18
-156 117 -184 194 l-22 60 20 54 c39 106 88 158 193 204 l56 25 -11 32 c-14
42 -5 125 22 181 32 68 81 120 145 152 50 26 67 29 151 30 l94 0 10 37 c24 89
122 186 213 210 23 6 49 15 57 19 23 13 36 12 50 -5z m294 -1016 c-53 -84
-140 -193 -205 -258 -47 -46 -151 -123 -183 -135 -19 -7 -19 -6 -2 13 10 11
23 18 27 15 5 -3 9 -1 9 5 0 6 14 18 30 26 18 9 28 21 24 27 -4 7 -3 8 5 4 7
-5 25 8 46 31 19 21 35 34 35 29 0 -5 14 9 31 30 17 22 37 43 45 47 8 4 14 15
14 24 0 9 14 30 32 46 17 17 42 55 54 85 13 33 33 62 50 73 16 10 30 17 32 15
2 -2 -18 -37 -44 -77z m-423 -403 c-12 -14 -170 -70 -177 -63 -3 3 132 58 185
76 2 0 -2 -5 -8 -13z"/>
<path d="M1259 2180 c-23 -19 -23 -21 -6 -34 13 -10 15 -16 6 -21 -6 -4 -15
-1 -20 6 -8 12 -10 12 -18 0 -8 -12 -12 -13 -26 -1 -34 28 -57 -53 -23 -85 7
-7 9 0 5 23 -6 28 -4 32 16 33 12 0 52 2 90 3 76 3 89 10 61 31 -25 19 -38 19
-30 0 8 -23 -17 -18 -32 6 -11 18 -11 23 4 33 11 8 13 15 7 19 -6 4 -22 -2
-34 -13z"/>
<path d="M1380 2160 c0 -16 9 -39 19 -49 11 -11 17 -22 14 -25 -4 -3 2 -6 11
-6 12 0 16 5 12 15 -3 8 -1 15 4 15 6 0 10 7 10 15 0 17 -16 20 -25 5 -14 -23
-27 -9 -22 25 4 26 2 35 -9 35 -9 0 -14 -11 -14 -30z"/>
<path d="M1215 2090 c-3 -5 1 -10 9 -10 9 0 16 5 16 10 0 6 -4 10 -9 10 -6 0
-13 -4 -16 -10z"/>
<path d="M1325 2028 c-36 -20 -153 -97 -166 -110 -8 -7 -37 -31 -64 -53 -27
-22 -79 -68 -115 -101 l-64 -62 2 -183 c2 -101 5 -202 8 -225 5 -32 0 -52 -21
-92 -19 -37 -26 -66 -26 -106 0 -73 -15 -84 -64 -51 -20 14 -42 24 -49 21 -8
-3 -7 -5 1 -5 7 -1 10 -8 7 -16 -4 -8 -1 -15 5 -15 6 0 8 -7 5 -15 -4 -8 -1
-15 4 -15 6 0 12 -10 14 -22 4 -31 61 -61 112 -61 59 1 147 44 206 99 67 63
132 193 162 326 20 91 24 98 49 103 33 8 47 23 64 72 9 27 24 44 51 58 49 26
77 87 51 112 -14 14 -17 14 -32 -1 -9 -9 -25 -16 -35 -16 -13 0 -27 -16 -42
-47 -45 -89 -85 -84 -106 13 -7 32 -17 86 -23 119 -13 67 -34 100 -49 75 -5
-8 -7 -17 -4 -21 2 -4 7 -38 10 -76 3 -37 12 -97 20 -133 8 -36 18 -99 21
-140 5 -64 2 -83 -18 -130 -32 -78 -83 -155 -132 -202 -74 -70 -217 -125 -217
-83 0 36 25 65 69 81 65 22 75 28 87 53 19 36 6 66 -36 85 -27 12 -39 24 -43
44 -3 15 -4 29 -1 31 2 2 22 -13 44 -33 22 -20 48 -36 59 -36 22 0 79 24 101
42 52 43 73 146 45 211 -31 73 -101 112 -123 70 -18 -34 -23 -97 -10 -122 17
-33 30 -35 56 -10 33 30 69 9 44 -27 -10 -14 -82 -57 -82 -49 0 4 -6 2 -14 -4
-10 -9 -16 -9 -21 -1 -4 6 -13 9 -20 6 -7 -2 -16 2 -19 10 -3 9 -11 12 -17 8
-7 -4 -10 -1 -7 7 3 8 -1 21 -9 30 -8 9 -17 44 -19 77 -12 132 -11 136 30 129
27 -4 38 -1 55 19 16 19 27 22 51 18 39 -8 60 10 60 51 0 34 -20 58 -57 69
-17 5 -26 1 -39 -19 -15 -23 -44 -35 -44 -17 0 9 51 57 110 102 24 19 51 41
58 48 21 19 72 44 73 35 1 -5 2 -12 4 -18 1 -5 3 -15 3 -21 1 -5 20 -18 43
-28 49 -22 64 -13 74 46 6 34 4 39 -18 49 -15 7 -27 22 -29 35 -3 20 -6 21
-23 12z"/>
<path d="M1410 1844 c-8 -21 -14 -24 -33 -18 -49 16 -61 11 -77 -34 -15 -42
-14 -44 8 -62 27 -23 68 -17 93 12 11 12 25 18 34 14 8 -3 15 -1 15 4 0 6 7
10 16 10 8 0 12 -5 8 -11 -4 -8 0 -8 15 0 31 17 29 73 -4 95 -36 24 -64 20
-75 -10z"/>
<path d="M1396 1424 c-16 -42 0 -124 25 -124 20 0 59 50 59 75 0 24 -8 30 -37
26 -7 -1 -13 7 -13 19 0 24 -25 27 -34 4z"/>
<path d="M1672 1013 c-7 -3 -19 -21 -27 -40 -14 -34 -17 -35 -55 -29 -38 6
-39 5 -45 -28 -10 -52 -3 -69 33 -80 26 -7 36 -5 53 10 12 10 25 28 29 39 5
14 17 20 36 20 20 0 32 8 43 26 13 24 13 29 -8 58 -22 30 -33 35 -59 24z"/>
<path d="M1273 634 c-8 -4 -9 -13 -3 -29 7 -19 6 -23 -5 -18 -8 3 -15 12 -15
21 0 31 -16 -3 -19 -43 -1 -5 -6 -3 -11 5 -6 10 -10 11 -10 3 0 -20 4 -28 13
-25 4 1 7 -4 7 -12 0 -8 3 -23 6 -33 5 -15 4 -15 -5 -3 -6 8 -11 11 -11 5 0
-5 -5 -3 -11 5 -8 11 -9 8 -4 -15 9 -42 30 -62 48 -46 12 9 19 7 36 -15 21
-26 23 -27 63 -14 35 10 40 14 28 24 -14 11 -40 50 -40 61 0 3 9 5 19 5 11 0
27 10 35 22 9 12 16 17 16 10 0 -7 -11 -23 -25 -36 -22 -20 -23 -25 -10 -42
11 -15 18 -17 31 -8 31 19 39 40 25 67 -7 14 -10 30 -7 36 4 6 2 11 -4 11 -7
0 -10 6 -7 14 4 9 -5 21 -20 31 l-26 17 6 -33 c4 -23 1 -41 -8 -53 -15 -19
-15 -19 -15 3 0 12 4 19 10 16 6 -3 10 1 10 10 0 11 -5 15 -15 11 -8 -3 -15
-1 -15 3 0 5 6 12 13 14 9 4 9 6 0 6 -7 1 -10 8 -7 16 5 11 -1 15 -20 15 -14
0 -26 -5 -26 -11 0 -5 4 -8 9 -5 5 3 12 -1 15 -10 9 -25 7 -27 -11 -13 -15 13
-15 12 -4 -9 9 -18 9 -26 -2 -42 -13 -18 -14 -17 -15 13 -1 27 -5 79 -7 76 0
0 -5 -3 -12 -5z m-12 -111 c-8 -15 -10 -15 -11 -2 0 17 10 32 18 25 2 -3 -1
-13 -7 -23z m59 -3 c0 -5 -5 -10 -11 -10 -5 0 -7 5 -4 10 3 6 8 10 11 10 2 0
4 -4 4 -10z m-27 -23 c3 -8 1 -20 -4 -28 -6 -10 -9 -7 -9 14 0 29 5 35 13 14z
m126 -13 c-13 -16 -39 -19 -39 -4 0 5 7 7 15 3 9 -3 15 -2 14 3 -3 18 1 25 11
19 8 -5 7 -11 -1 -21z m-165 -8 c-3 -9 -10 -16 -15 -16 -5 0 -4 9 3 20 14 22
21 20 12 -4z m77 -26 c9 13 10 13 6 0 -2 -8 -10 -15 -17 -15 -7 0 -15 7 -17
15 -4 13 -3 13 6 0 10 -13 12 -13 22 0z"/>
<path d="M1260 436 c0 -9 5 -16 10 -16 6 0 10 4 10 9 0 6 -4 13 -10 16 -5 3
-10 -1 -10 -9z"/>
</g>
</svg>
